<svg xmlns="http://www.w3.org/2000/svg" viewBox="-20 -5 400 325">
  <defs>
    <linearGradient id="a" gradientUnits="userSpaceOnUse" x1="96" y1="0" x2="450" y2="310">
      <stop offset="0" stop-color="#46AEC8"/>
      <stop offset="1" stop-color="#4D77B6"/>
    </linearGradient>
    <linearGradient id="b" gradientUnits="userSpaceOnUse" x1="0" y1="0" x2="370" y2="310">
      <stop offset="0" stop-color="#46AEC8"/>
      <stop offset="1" stop-color="#4D77B6"/>
    </linearGradient>
  </defs>
  <!-- Checkmark / tick path -->
  <path fill="url(#a)" d="M446.7,50.2l-81.4,82.4-31.2,31.6L190,310.2h-.1l-90.2-89c-4.6-4.5-4.6-11.9-.1-16.4l20.9-21.2c4.5-4.6,11.8-4.6,16.4-.1l52.4,51.7L314,108.9l27-27.3,67.9-68.8c4.5-4.6,11.9-4.6,16.4-.1l21.3,21c4.5,4.5,4.6,11.9.1,16.5z"/>
  <!-- Arc / circle path -->
  <path fill="url(#b)" d="M197.6.3C87.5-6.1-4.5,84.5.2,194.7c1.8,42.8,18.3,83.6,46.7,115.6l17.7-37.9C17.1,205.1,33.2,112,100.5,64.5c63.9-45.1,151.8-33.1,201.3,27.3l26.4-26.8C295.3,26.6,248.1,3.2,197.6.3zm173.2,156.1L335.7,192c-1,28.9-10.4,56.8-27,80.5l17.7,37.9C363.5,268.3,379.8,211.8,370.8,156.4z"/>
</svg>
